<svg width="102" height="28" viewBox="0 0 102 28" fill="none" xmlns="http://www.w3.org/2000/svg">
<g filter="url(#filter0_d_0_1)">
<path d="M12.375 19.3C10.7417 19.3 9.30833 18.925 8.075 18.175C6.84167 17.4083 5.88333 16.35 5.2 15C4.51667 13.6333 4.175 12.0583 4.175 10.275C4.175 8.49167 4.51667 6.91667 5.2 5.55C5.9 4.18333 6.88333 3.11667 8.15 2.35C9.43333 1.58333 10.9417 1.2 12.675 1.2C14.6417 1.2 16.275 1.675 17.575 2.625C18.8917 3.575 19.7417 4.88333 20.125 6.55H17.7C17.4667 5.5 16.9083 4.66667 16.025 4.05C15.1583 3.43333 14.0417 3.125 12.675 3.125C11.3917 3.125 10.275 3.41667 9.325 4C8.375 4.56667 7.63333 5.38333 7.1 6.45C6.58333 7.51667 6.325 8.79167 6.325 10.275C6.325 11.7583 6.58333 13.0333 7.1 14.1C7.61667 15.1667 8.33333 15.9917 9.25 16.575C10.1667 17.1417 11.2333 17.425 12.45 17.425C14.3167 17.425 15.725 16.8833 16.675 15.8C17.625 14.7 18.1667 13.2 18.3 11.3H13.25V9.65H20.45V19H18.525L18.35 16.125C17.7167 17.1417 16.9417 17.925 16.025 18.475C15.1083 19.025 13.8917 19.3 12.375 19.3ZM28.1709 19.3C26.7042 19.3 25.5376 18.8583 24.6709 17.975C23.8042 17.075 23.3709 15.7 23.3709 13.85V6.6H25.4709V13.625C25.4709 16.2083 26.5292 17.5 28.6459 17.5C29.7292 17.5 30.6209 17.1167 31.3209 16.35C32.0376 15.5667 32.3959 14.4583 32.3959 13.025V6.6H34.4959V19H32.5959L32.4459 16.775C32.0626 17.5583 31.4876 18.175 30.7209 18.625C29.9709 19.075 29.1209 19.3 28.1709 19.3ZM39.2275 3.85C38.8109 3.85 38.4609 3.71667 38.1775 3.45C37.9109 3.16667 37.7775 2.81667 37.7775 2.4C37.7775 2 37.9109 1.66667 38.1775 1.4C38.4609 1.13333 38.8109 0.999999 39.2275 0.999999C39.6275 0.999999 39.9692 1.13333 40.2525 1.4C40.5359 1.66667 40.6775 2 40.6775 2.4C40.6775 2.81667 40.5359 3.16667 40.2525 3.45C39.9692 3.71667 39.6275 3.85 39.2275 3.85ZM38.1775 19V6.6H40.2775V19H38.1775ZM45.209 3.85C44.7923 3.85 44.4423 3.71667 44.159 3.45C43.8923 3.16667 43.759 2.81667 43.759 2.4C43.759 2 43.8923 1.66667 44.159 1.4C44.4423 1.13333 44.7923 0.999999 45.209 0.999999C45.609 0.999999 45.9507 1.13333 46.234 1.4C46.5173 1.66667 46.659 2 46.659 2.4C46.659 2.81667 46.5173 3.16667 46.234 3.45C45.9507 3.71667 45.609 3.85 45.209 3.85ZM44.159 19V6.6H46.259V19H44.159Z" fill="#00856F"/>
</g>
<g filter="url(#filter1_d_0_1)">
<path d="M49.85 18V0.499999H51.95V8.225H61.025V0.499999H63.125V18H61.025V9.95H51.95V18H49.85ZM71.5928 18C70.4594 18 69.5678 17.725 68.9178 17.175C68.2678 16.625 67.9428 15.6333 67.9428 14.2V7.375H65.7928V5.6H67.9428L68.2178 2.625H70.0428V5.6H73.6928V7.375H70.0428V14.2C70.0428 14.9833 70.2011 15.5167 70.5178 15.8C70.8344 16.0667 71.3928 16.2 72.1928 16.2H73.4928V18H71.5928ZM81.2607 18C80.1274 18 79.2357 17.725 78.5857 17.175C77.9357 16.625 77.6107 15.6333 77.6107 14.2V7.375H75.4607V5.6H77.6107L77.8857 2.625H79.7107V5.6H83.3607V7.375H79.7107V14.2C79.7107 14.9833 79.8691 15.5167 80.1857 15.8C80.5024 16.0667 81.0607 16.2 81.8607 16.2H83.1607V18H81.2607ZM91.3369 18.3C90.1702 18.3 89.1202 18.0333 88.1869 17.5C87.2536 16.9667 86.5119 16.2167 85.9619 15.25C85.4286 14.2667 85.1619 13.1167 85.1619 11.8C85.1619 10.4833 85.4369 9.34167 85.9869 8.375C86.5369 7.39167 87.2786 6.63333 88.2119 6.1C89.1619 5.56667 90.2202 5.3 91.3869 5.3C92.5536 5.3 93.6036 5.56667 94.5369 6.1C95.4702 6.63333 96.2036 7.39167 96.7369 8.375C97.2869 9.34167 97.5619 10.4833 97.5619 11.8C97.5619 13.1167 97.2869 14.2667 96.7369 15.25C96.1869 16.2167 95.4369 16.9667 94.4869 17.5C93.5536 18.0333 92.5036 18.3 91.3369 18.3ZM91.3369 16.5C92.0536 16.5 92.7202 16.325 93.3369 15.975C93.9536 15.625 94.4536 15.1 94.8369 14.4C95.2202 13.7 95.4119 12.8333 95.4119 11.8C95.4119 10.7667 95.2202 9.9 94.8369 9.2C94.4702 8.5 93.9786 7.975 93.3619 7.625C92.7452 7.275 92.0869 7.1 91.3869 7.1C90.6702 7.1 90.0036 7.275 89.3869 7.625C88.7702 7.975 88.2702 8.5 87.8869 9.2C87.5036 9.9 87.3119 10.7667 87.3119 11.8C87.3119 12.8333 87.5036 13.7 87.8869 14.4C88.2702 15.1 88.7619 15.625 89.3619 15.975C89.9786 16.325 90.6369 16.5 91.3369 16.5Z" fill="#00856F"/>
<path d="M49.85 18H48.85V19H49.85V18ZM49.85 0.499999V-0.500001H48.85V0.499999H49.85ZM51.95 0.499999H52.95V-0.500001H51.95V0.499999ZM51.95 8.225H50.95V9.225H51.95V8.225ZM61.025 8.225V9.225H62.025V8.225H61.025ZM61.025 0.499999V-0.500001H60.025V0.499999H61.025ZM63.125 0.499999H64.125V-0.500001H63.125V0.499999ZM63.125 18V19H64.125V18H63.125ZM61.025 18H60.025V19H61.025V18ZM61.025 9.95H62.025V8.95H61.025V9.95ZM51.95 9.95V8.95H50.95V9.95H51.95ZM51.95 18V19H52.95V18H51.95ZM50.85 18V0.499999H48.85V18H50.85ZM49.85 1.5H51.95V-0.500001H49.85V1.5ZM50.95 0.499999V8.225H52.95V0.499999H50.95ZM51.95 9.225H61.025V7.225H51.95V9.225ZM62.025 8.225V0.499999H60.025V8.225H62.025ZM61.025 1.5H63.125V-0.500001H61.025V1.5ZM62.125 0.499999V18H64.125V0.499999H62.125ZM63.125 17H61.025V19H63.125V17ZM62.025 18V9.95H60.025V18H62.025ZM61.025 8.95H51.95V10.95H61.025V8.95ZM50.95 9.95V18H52.95V9.95H50.95ZM51.95 17H49.85V19H51.95V17ZM67.9428 7.375H68.9428V6.375H67.9428V7.375ZM65.7928 7.375H64.7928V8.375H65.7928V7.375ZM65.7928 5.6V4.6H64.7928V5.6H65.7928ZM67.9428 5.6V6.6H68.8546L68.9385 5.69204L67.9428 5.6ZM68.2178 2.625V1.625H67.3059L67.222 2.53296L68.2178 2.625ZM70.0428 2.625H71.0428V1.625H70.0428V2.625ZM70.0428 5.6H69.0428V6.6H70.0428V5.6ZM73.6928 5.6H74.6928V4.6H73.6928V5.6ZM73.6928 7.375V8.375H74.6928V7.375H73.6928ZM70.0428 7.375V6.375H69.0428V7.375H70.0428ZM70.5178 15.8L69.851 16.5452L69.8622 16.5552L69.8736 16.5649L70.5178 15.8ZM73.4928 16.2H74.4928V15.2H73.4928V16.2ZM73.4928 18V19H74.4928V18H73.4928ZM71.5928 17C70.617 17 69.9808 16.7646 69.5637 16.4116L68.2718 17.9384C69.1547 18.6854 70.3019 19 71.5928 19V17ZM69.5637 16.4116C69.2532 16.1488 68.9428 15.5335 68.9428 14.2H66.9428C66.9428 15.7332 67.2824 17.1012 68.2718 17.9384L69.5637 16.4116ZM68.9428 14.2V7.375H66.9428V14.2H68.9428ZM67.9428 6.375H65.7928V8.375H67.9428V6.375ZM66.7928 7.375V5.6H64.7928V7.375H66.7928ZM65.7928 6.6H67.9428V4.6H65.7928V6.6ZM68.9385 5.69204L69.2135 2.71704L67.222 2.53296L66.947 5.50795L68.9385 5.69204ZM68.2178 3.625H70.0428V1.625H68.2178V3.625ZM69.0428 2.625V5.6H71.0428V2.625H69.0428ZM70.0428 6.6H73.6928V4.6H70.0428V6.6ZM72.6928 5.6V7.375H74.6928V5.6H72.6928ZM73.6928 6.375H70.0428V8.375H73.6928V6.375ZM69.0428 7.375V14.2H71.0428V7.375H69.0428ZM69.0428 14.2C69.0428 15.0474 69.2003 15.9631 69.851 16.5452L71.1846 15.0548C71.2009 15.0693 71.1626 15.0457 71.1202 14.9029C71.0771 14.7577 71.0428 14.5313 71.0428 14.2H69.0428ZM69.8736 16.5649C70.4759 17.0721 71.3466 17.2 72.1928 17.2V15.2C71.8429 15.2 71.5862 15.1703 71.4063 15.1273C71.3181 15.1063 71.2567 15.084 71.2163 15.0655C71.1763 15.0472 71.1617 15.0349 71.1619 15.0351L69.8736 16.5649ZM72.1928 17.2H73.4928V15.2H72.1928V17.2ZM72.4928 16.2V18H74.4928V16.2H72.4928ZM73.4928 17H71.5928V19H73.4928V17ZM77.6107 7.375H78.6107V6.375H77.6107V7.375ZM75.4607 7.375H74.4607V8.375H75.4607V7.375ZM75.4607 5.6V4.6H74.4607V5.6H75.4607ZM77.6107 5.6V6.6H78.5226L78.6065 5.69204L77.6107 5.6ZM77.8857 2.625V1.625H76.9739L76.89 2.53296L77.8857 2.625ZM79.7107 2.625H80.7107V1.625H79.7107V2.625ZM79.7107 5.6H78.7107V6.6H79.7107V5.6ZM83.3607 5.6H84.3607V4.6H83.3607V5.6ZM83.3607 7.375V8.375H84.3607V7.375H83.3607ZM79.7107 7.375V6.375H78.7107V7.375H79.7107ZM80.1857 15.8L79.5189 16.5452L79.5301 16.5552L79.5416 16.5649L80.1857 15.8ZM83.1607 16.2H84.1607V15.2H83.1607V16.2ZM83.1607 18V19H84.1607V18H83.1607ZM81.2607 17C80.2849 17 79.6488 16.7646 79.2317 16.4116L77.9398 17.9384C78.8227 18.6854 79.9699 19 81.2607 19V17ZM79.2317 16.4116C78.9211 16.1488 78.6107 15.5335 78.6107 14.2H76.6107C76.6107 15.7332 76.9503 17.1012 77.9398 17.9384L79.2317 16.4116ZM78.6107 14.2V7.375H76.6107V14.2H78.6107ZM77.6107 6.375H75.4607V8.375H77.6107V6.375ZM76.4607 7.375V5.6H74.4607V7.375H76.4607ZM75.4607 6.6H77.6107V4.6H75.4607V6.6ZM78.6065 5.69204L78.8815 2.71704L76.89 2.53296L76.615 5.50795L78.6065 5.69204ZM77.8857 3.625H79.7107V1.625H77.8857V3.625ZM78.7107 2.625V5.6H80.7107V2.625H78.7107ZM79.7107 6.6H83.3607V4.6H79.7107V6.6ZM82.3607 5.6V7.375H84.3607V5.6H82.3607ZM83.3607 6.375H79.7107V8.375H83.3607V6.375ZM78.7107 7.375V14.2H80.7107V7.375H78.7107ZM78.7107 14.2C78.7107 15.0474 78.8683 15.9631 79.5189 16.5452L80.8525 15.0548C80.8688 15.0693 80.8305 15.0457 80.7881 14.9029C80.745 14.7577 80.7107 14.5313 80.7107 14.2H78.7107ZM79.5416 16.5649C80.1439 17.0721 81.0146 17.2 81.8607 17.2V15.2C81.5108 15.2 81.2541 15.1703 81.0743 15.1273C80.9861 15.1063 80.9247 15.084 80.8843 15.0655C80.8443 15.0472 80.8297 15.0349 80.8299 15.0351L79.5416 16.5649ZM81.8607 17.2H83.1607V15.2H81.8607V17.2ZM82.1607 16.2V18H84.1607V16.2H82.1607ZM83.1607 17H81.2607V19H83.1607V17ZM88.1869 17.5L88.6831 16.6318L88.6831 16.6318L88.1869 17.5ZM85.9619 15.25L85.0829 15.7268L85.0877 15.7357L85.0928 15.7445L85.9619 15.25ZM85.9869 8.375L86.8561 8.86954L86.8597 8.86315L85.9869 8.375ZM88.2119 6.1L87.7224 5.22799L87.7158 5.23176L88.2119 6.1ZM94.5369 6.1L94.0408 6.96824L94.0408 6.96824L94.5369 6.1ZM96.7369 8.375L95.8579 8.85176L95.8627 8.86069L95.8678 8.86952L96.7369 8.375ZM96.7369 15.25L97.6061 15.7445L97.6097 15.7382L96.7369 15.25ZM94.4869 17.5L93.9974 16.628L93.9908 16.6318L94.4869 17.5ZM93.3369 15.975L93.8305 16.8447L93.8305 16.8447L93.3369 15.975ZM94.8369 14.4L93.9598 13.9197L93.9598 13.9197L94.8369 14.4ZM94.8369 9.2L93.9511 9.66401L93.9554 9.6722L93.9598 9.68031L94.8369 9.2ZM87.8869 9.2L87.0098 8.71968L87.0098 8.71968L87.8869 9.2ZM87.8869 14.4L88.764 13.9197L88.764 13.9197L87.8869 14.4ZM89.3619 15.975L88.858 16.8388L88.8683 16.8447L89.3619 15.975ZM91.3369 17.3C90.329 17.3 89.4525 17.0715 88.6831 16.6318L87.6908 18.3682C88.788 18.9952 90.0115 19.3 91.3369 19.3V17.3ZM88.6831 16.6318C87.9108 16.1905 87.2957 15.572 86.8311 14.7555L85.0928 15.7445C85.7282 16.8613 86.5963 17.7428 87.6908 18.3682L88.6831 16.6318ZM86.8409 14.7732C86.4 13.9602 86.1619 12.9797 86.1619 11.8H84.1619C84.1619 13.2537 84.4572 14.5731 85.0829 15.7268L86.8409 14.7732ZM86.1619 11.8C86.1619 10.6247 86.4064 9.65991 86.8561 8.86952L85.1178 7.88048C84.4675 9.02342 84.1619 10.3419 84.1619 11.8H86.1619ZM86.8597 8.86315C87.3254 8.0304 87.9402 7.40702 88.7081 6.96824L87.7158 5.23176C86.617 5.85965 85.7484 6.75293 85.1142 7.88685L86.8597 8.86315ZM88.7014 6.97198C89.4914 6.52852 90.3792 6.3 91.3869 6.3V4.3C90.0613 4.3 88.8325 4.60482 87.7224 5.22802L88.7014 6.97198ZM91.3869 6.3C92.3948 6.3 93.2713 6.52853 94.0408 6.96824L95.0331 5.23176C93.9359 4.6048 92.7123 4.3 91.3869 4.3V6.3ZM94.0408 6.96824C94.8058 7.40539 95.4095 8.02503 95.8579 8.85176L97.6159 7.89824C96.9977 6.7583 96.1347 5.86128 95.0331 5.23176L94.0408 6.96824ZM95.8678 8.86952C96.3175 9.65991 96.5619 10.6247 96.5619 11.8H98.5619C98.5619 10.3419 98.2564 9.02342 97.6061 7.88048L95.8678 8.86952ZM96.5619 11.8C96.5619 12.9748 96.3176 13.9511 95.8642 14.7618L97.6097 15.7382C98.2562 14.5822 98.5619 13.2586 98.5619 11.8H96.5619ZM95.8678 14.7555C95.4057 15.5676 94.7854 16.1856 93.9974 16.628L94.9764 18.372C96.0884 17.7477 96.9682 16.8657 97.6061 15.7445L95.8678 14.7555ZM93.9908 16.6318C93.2213 17.0715 92.3448 17.3 91.3369 17.3V19.3C92.6623 19.3 93.8859 18.9952 94.9831 18.3682L93.9908 16.6318ZM91.3369 17.5C92.2247 17.5 93.0617 17.2811 93.8305 16.8447L92.8433 15.1053C92.3788 15.3689 91.8825 15.5 91.3369 15.5V17.5ZM93.8305 16.8447C94.6283 16.3919 95.253 15.7222 95.714 14.8803L93.9598 13.9197C93.6542 14.4778 93.2788 14.8581 92.8433 15.1053L93.8305 16.8447ZM95.714 14.8803C96.1983 13.996 96.4119 12.9531 96.4119 11.8H94.4119C94.4119 12.7136 94.2422 13.404 93.9598 13.9197L95.714 14.8803ZM96.4119 11.8C96.4119 10.6469 96.1983 9.60404 95.714 8.71968L93.9598 9.68031C94.2422 10.196 94.4119 10.8864 94.4119 11.8H96.4119ZM95.7227 8.73599C95.2775 7.88604 94.6579 7.21071 93.8555 6.75531L92.8683 8.49469C93.2993 8.73929 93.663 9.11396 93.9511 9.66401L95.7227 8.73599ZM93.8555 6.75531C93.0904 6.32106 92.2623 6.1 91.3869 6.1V8.1C91.9115 8.1 92.4001 8.22894 92.8683 8.49469L93.8555 6.75531ZM91.3869 6.1C90.4992 6.1 89.6621 6.31895 88.8933 6.75531L89.8805 8.49469C90.345 8.23105 90.8413 8.1 91.3869 8.1V6.1ZM88.8933 6.75531C88.0955 7.20812 87.4708 7.8778 87.0098 8.71968L88.764 9.68031C89.0696 9.1222 89.445 8.74188 89.8805 8.49469L88.8933 6.75531ZM87.0098 8.71968C86.5255 9.60404 86.3119 10.6469 86.3119 11.8H88.3119C88.3119 10.8864 88.4816 10.196 88.764 9.68031L87.0098 8.71968ZM86.3119 11.8C86.3119 12.9531 86.5255 13.996 87.0098 14.8803L88.764 13.9197C88.4816 13.404 88.3119 12.7136 88.3119 11.8H86.3119ZM87.0098 14.8803C87.4672 15.7155 88.0789 16.3843 88.858 16.8388L89.8658 15.1112C89.4449 14.8657 89.0733 14.4845 88.764 13.9197L87.0098 14.8803ZM88.8683 16.8447C89.6334 17.2789 90.4615 17.5 91.3369 17.5V15.5C90.8123 15.5 90.3237 15.3711 89.8555 15.1053L88.8683 16.8447Z" fill="#00856F"/>
</g>
<defs>
<filter id="filter0_d_0_1" x="0.175049" y="1" width="50.4839" height="26.3" filterUnits="userSpaceOnUse" color-interpolation-filters="sRGB">
<feFlood flood-opacity="0" result="BackgroundImageFix"/>
<feColorMatrix in="SourceAlpha" type="matrix" values="0 0 0 0 0 0 0 0 0 0 0 0 0 0 0 0 0 0 127 0" result="hardAlpha"/>
<feOffset dy="4"/>
<feGaussianBlur stdDeviation="2"/>
<feComposite in2="hardAlpha" operator="out"/>
<feColorMatrix type="matrix" values="0 0 0 0 0 0 0 0 0 0 0 0 0 0 0 0 0 0 0.25 0"/>
<feBlend mode="normal" in2="BackgroundImageFix" result="effect1_dropShadow_0_1"/>
<feBlend mode="normal" in="SourceGraphic" in2="effect1_dropShadow_0_1" result="shape"/>
</filter>
<filter id="filter1_d_0_1" x="45.8501" y="0.5" width="55.7119" height="25.8" filterUnits="userSpaceOnUse" color-interpolation-filters="sRGB">
<feFlood flood-opacity="0" result="BackgroundImageFix"/>
<feColorMatrix in="SourceAlpha" type="matrix" values="0 0 0 0 0 0 0 0 0 0 0 0 0 0 0 0 0 0 127 0" result="hardAlpha"/>
<feOffset dy="4"/>
<feGaussianBlur stdDeviation="2"/>
<feComposite in2="hardAlpha" operator="out"/>
<feColorMatrix type="matrix" values="0 0 0 0 0 0 0 0 0 0 0 0 0 0 0 0 0 0 0.25 0"/>
<feBlend mode="normal" in2="BackgroundImageFix" result="effect1_dropShadow_0_1"/>
<feBlend mode="normal" in="SourceGraphic" in2="effect1_dropShadow_0_1" result="shape"/>
</filter>
</defs>
</svg>
